<svg width="79" height="78" xmlns="http://www.w3.org/2000/svg" xmlns:xlink="http://www.w3.org/1999/xlink" xml:space="preserve" overflow="hidden"><defs><clipPath id="clip0"><rect x="666" y="454" width="79" height="78"/></clipPath></defs><g clip-path="url(#clip0)" transform="translate(-666 -454)"><path d="M25.5702 31.6453 18.8898 21.2274C20.3338 18.4697 19.2689 15.0636 16.5112 13.6196 13.7536 12.1756 10.3474 13.2405 8.90346 15.9981 7.45945 18.7558 8.52434 22.1619 11.2821 23.606 11.6877 23.8184 12.1179 23.9806 12.5629 24.089L15.0646 31.6453 7.33444 31.6453C7.33159 40.9095 12.41 49.4288 20.5603 53.833 19.5659 55.6721 19.0465 57.7304 19.0491 59.8211L35.0764 59.8211C34.7217 59.4422 34.3958 59.0372 34.1014 58.6097 34.0112 58.4748 33.9389 58.3334 33.8577 58.1961L20.7951 58.1961C20.9822 56.9393 21.3866 55.7246 21.9903 54.6065L22.7622 53.1773 21.3346 52.4062C14.221 48.56 9.57304 41.3381 9.01875 33.2703L56.0869 33.2703C55.6555 39.2698 52.9571 44.8805 48.5396 48.9629 48.846 49.4326 49.1138 49.9263 49.3407 50.4392 50.0367 49.8173 50.6982 49.158 51.3224 48.464 51.8213 47.7073 52.3894 46.9987 53.0197 46.3474 56.1111 42.0689 57.7731 36.9237 57.7687 31.6453ZM16.7765 31.6453 13.7987 22.6533 13.4233 22.5972C11.4709 22.331 9.98497 20.7117 9.88731 18.7436 9.81256 16.5294 11.5468 14.6739 13.7609 14.5992 15.975 14.5243 17.8306 16.2586 17.9054 18.4728 17.9332 19.2968 17.7064 20.1095 17.2559 20.8L16.9691 21.2404 23.6397 31.6404Z" transform="matrix(1.01282 0 0 1 666 454)"/><path d="M70.1334 45.7527C69.7962 45.6398 61.8053 43.0268 56.3574 46.6968 52.1397 49.5406 50.7512 55.3483 50.2946 58.7316 50.0094 58.9282 49.7177 59.1378 49.413 59.3816 48.4916 60.1248 47.7177 61.0344 47.1315 62.0628L47.1315 62.0628C47.1152 62.0092 47.0949 61.9426 47.0787 61.893L47.0941 61.8467 47.2128 61.5217C48.373 58.3464 48.6403 53.4722 46.4872 50.2759 43.4241 45.7308 36.4496 45.2498 36.1546 45.2311L35.5322 45.1929 35.334 45.7844C35.2406 46.0647 33.0663 52.7093 36.1294 57.2544 38.4857 60.7539 43.6117 61.9361 45.4886 62.2603L45.4886 62.2603C45.8451 63.2554 45.9504 64.3233 45.7949 65.3689 45.7949 65.3884 45.7787 65.4428 45.7787 65.4428L47.3647 65.7987C47.3647 65.7987 47.3769 65.7467 47.3801 65.7272 47.8489 63.7674 48.9085 61.9989 50.4156 60.6613 50.7041 60.4354 50.9787 60.2379 51.2476 60.0535 53.2528 60.6068 55.3215 60.8966 57.4015 60.9156 59.9512 61.003 62.4695 60.3319 64.6376 58.9875 70.0871 55.315 70.6647 46.9284 70.6875 46.5733L70.7257 45.9509ZM37.4749 56.3396C35.3551 53.1928 36.2676 48.5745 36.6966 46.9146 38.3955 47.1372 43.0121 48.0212 45.1384 51.1769 46.6123 53.3658 46.7399 56.7458 46.1134 59.4839 46.1134 59.4969 46.1037 59.4977 46.098 59.4839 45.8965 59.0777 45.6828 58.6658 45.4407 58.2506 44.5737 56.7653 43.8514 55.6611 43.8206 55.614 43.5737 55.2389 43.0696 55.1348 42.6944 55.3816 42.3193 55.6285 42.2152 56.1326 42.4621 56.5077 42.4686 56.5191 43.1933 57.6258 44.0375 59.072 44.3064 59.5327 44.5396 59.9828 44.7533 60.4354 44.7533 60.4435 44.7533 60.4492 44.7444 60.4468 42.6628 59.9739 39.1625 58.838 37.4749 56.3396ZM63.7301 57.6396C60.5199 59.8 56.0625 59.4067 53.3601 58.8754 53.3463 58.8754 53.3463 58.8648 53.3601 58.8591 53.963 58.5894 54.5456 58.3716 55.1395 58.1571 55.9166 57.8883 56.6785 57.5775 57.4218 57.226 58.849 56.5753 60.0988 55.591 61.0659 54.3563 61.3133 53.9819 61.2104 53.4779 60.8361 53.2304 60.4717 52.9896 59.9822 53.0799 59.7277 53.4349 58.9149 54.433 57.8831 55.2307 56.7125 55.7659 56.0184 56.0923 55.3072 56.3812 54.5821 56.6312 53.7446 56.9211 52.9247 57.2596 52.1267 57.6452 52.1186 57.6452 52.1129 57.6452 52.1146 57.6371 52.6906 54.509 54.0508 50.2117 57.265 48.0496 61.2462 45.3684 67.0963 46.6123 68.9991 47.1193 68.7586 49.0653 67.7154 54.9534 63.7301 57.6379Z" transform="matrix(1.01282 0 0 1 666 454)"/></g></svg>