<svg width="71" height="71" xmlns="http://www.w3.org/2000/svg" xmlns:xlink="http://www.w3.org/1999/xlink" xml:space="preserve" overflow="hidden"><defs><clipPath id="clip0"><rect x="934" y="457" width="71" height="71"/></clipPath></defs><g clip-path="url(#clip0)" transform="translate(-934 -457)"><path d="M998.127 473.44 988.56 463.873C988.267 463.589 987.798 463.596 987.514 463.889 987.236 464.176 987.236 464.632 987.514 464.919L989.865 467.27 985.103 472.027 979.857 466.831C979.569 466.542 979.1 466.542 978.812 466.831 978.523 467.12 978.523 467.588 978.811 467.877L981.178 470.244 959.577 491.855C958.16 493.253 957.358 495.158 957.349 497.148 957.362 497.926 957.479 498.699 957.697 499.446L953.337 503.806C952.375 504.778 952.075 506.223 952.571 507.497L953.023 507.949 940.152 520.821C939.858 521.105 939.85 521.573 940.134 521.867 940.417 522.16 940.886 522.169 941.179 521.885 941.186 521.879 941.192 521.873 941.198 521.867L954.069 508.995 954.52 509.447C955.794 509.942 957.239 509.642 958.21 508.681L962.57 504.32C963.317 504.538 964.09 504.655 964.868 504.669 966.865 504.696 968.783 503.888 970.159 502.44L991.761 480.827 994.343 483.408C994.627 483.701 995.095 483.709 995.388 483.424 995.682 483.14 995.689 482.672 995.404 482.378 995.399 482.373 995.394 482.368 995.388 482.362L989.976 476.901 994.739 472.144 997.081 474.486C997.374 474.77 997.842 474.763 998.127 474.47 998.405 474.183 998.405 473.727 998.127 473.44ZM957.164 507.635C956.796 508.002 956.296 508.207 955.776 508.203 955.621 508.203 955.466 508.185 955.314 508.149L953.869 506.703C953.706 506.039 953.901 505.338 954.383 504.852L958.719 500.515 961.501 503.297ZM969.089 501.419C967.992 502.574 966.461 503.216 964.868 503.189 964.322 503.175 963.78 503.097 963.253 502.957L959.06 498.765C958.92 498.237 958.842 497.694 958.828 497.148 958.835 495.549 959.481 494.02 960.623 492.901L963.629 489.894 972.121 498.386ZM990.695 479.802 986.825 483.674 982.079 478.929 981.033 479.974 985.779 484.72 982.388 488.113 977.648 483.372 976.602 484.418 981.343 489.159 977.952 492.552 973.211 487.81 972.165 488.856 976.906 493.598 973.166 497.34 964.674 488.847 982.204 471.31ZM988.931 475.854 988.906 475.879 986.124 473.098 986.148 473.074 990.911 468.316 993.693 471.098Z"/></g></svg>